<svg id="logo-full" viewBox="0 0 108 42" xmlns="http://www.w3.org/2000/svg"><path d="M22.71 23.447v-.599c1.788-.099 2.62-.497 2.62-1.99V2.819c0-1.492-.83-1.922-2.455-1.99V.233h8.356V.83c-1.591.067-2.42.497-2.42 1.99v18.04c0 1.492.829 1.89 2.62 1.99v.598zM62.737 3.58l-7.394 20.03h-.596L49.506 8.553 43.238 23.61h-.596L35.444 2.786c-.43-1.227-.962-1.856-2.652-1.957V.232h8.622V.83c-1.692.099-2.155.663-2.155 1.425 0 .399.23 1.128.465 1.757l4.51 13.1L48.714 6.2 47.45 2.487C47.055 1.359 46.424.928 44.932.829V.232h8.589V.83c-1.99.034-2.222.697-2.222 1.227 0 .364.133.928.364 1.559l4.512 13.032 4.278-11.641c.564-1.524.73-2.454.73-2.818 0-.896-.697-1.26-2.355-1.361V.232h7.395V.83c-1.758.099-2.684.63-3.483 2.752M76.5 23.944c-7.195 0-11.342-5.073-11.342-12.104C65.158 7.595 67.712 0 76.6 0c4.013 0 5.074 1.559 6.465 1.559.53 0 .896-.265.995-1.26h.598l.265 7.064h-.695c-.896-4.045-3.848-6.035-7.33-6.035-1.825 0-3.515.629-4.841 1.99-1.69 1.724-2.752 4.575-2.752 8.522 0 6.136 2.72 10.513 7.96 10.513 3.515 0 5.703-1.393 7.428-4.113l.598.332c-1.759 3.415-4.676 5.372-8.789 5.372M3.045 37.005c1.422.345 2.161.855 2.161 1.978 0 1.267-.989 2.016-2.401 2.016A4.14 4.14 0 0 1 0 39.924l.71-.846c.645.557 1.287.875 2.124.875.73 0 1.19-.336 1.19-.856 0-.49-.268-.749-1.516-1.037C1.077 37.717.27 37.293.27 36.045c0-1.171.96-1.958 2.296-1.958.98 0 1.757.297 2.439.846l-.635.893c-.606-.451-1.21-.692-1.825-.692-.692 0-1.096.355-1.096.807 0 .528.307.758 1.595 1.065m8.778 4.012c-1.959 0-3.418-1.526-3.418-3.466s1.43-3.486 3.466-3.486c1.239 0 1.988.433 2.632 1.047l-.759.874c-.537-.499-1.115-.834-1.883-.834-1.286 0-2.218 1.055-2.218 2.382 0 1.326.932 2.4 2.219 2.4.825 0 1.354-.335 1.93-.874l.758.768c-.701.73-1.469 1.19-2.727 1.19zm7.838-2.948v2.834h-1.18V34.18h1.181v2.795h3.207V34.18h1.182v6.723h-1.182V38.07zm15.04 2.834h-1.25l-.681-1.624H29.59l-.692 1.624h-1.21l2.958-6.77h1.096zm-3.524-5.359-1.153 2.689h2.315zm11.986-.289h-3.823v1.834h3.39v1.075h-3.39v2.737h-1.181v-6.723h5.004zm8.988 0h-3.822v1.834h3.39v1.075h-3.39v2.737h-1.181v-6.723h5.004zm4.591 2.814v2.834H55.56V34.18h1.181v2.795h3.207V34.18h1.182v6.723h-1.182V38.07zm15.243 2.834h-1.248l-.682-1.624h-3.179l-.692 1.624h-1.21l2.958-6.77h1.096zm-3.525-5.359-1.153 2.689h2.315zm12.198 2.449c0 2.006-1.134 3.016-2.891 3.016s-2.863-1.008-2.863-2.957v-3.87h1.182v3.822c0 1.248.644 1.921 1.7 1.921s1.69-.635 1.69-1.873v-3.87h1.181v3.813zm6.511-.989c1.421.345 2.16.855 2.16 1.978 0 1.267-.988 2.016-2.4 2.016a4.14 4.14 0 0 1-2.805-1.075l.71-.846c.645.557 1.287.875 2.123.875.73 0 1.191-.336 1.191-.856 0-.49-.268-.749-1.516-1.037-1.431-.344-2.238-.767-2.238-2.016 0-1.171.96-1.958 2.297-1.958.98 0 1.757.297 2.439.846l-.635.893c-.604-.451-1.21-.692-1.825-.692-.692 0-1.096.355-1.096.807 0 .528.307.758 1.595 1.065m10.842-1.769h-3.803v1.748h3.371v1.055h-3.37v1.807h3.85v1.056h-5.032v-6.723h4.985zm8.828-1.056H108v6.724h-.989l-3.706-4.783v4.783h-1.163V34.18h1.096l3.601 4.648V34.18z"/></svg>